{
	"asset":{
		"generator":"Khronos glTF Blender I/O v3.6.28",
		"version":"2.0"
	},
	"extensionsUsed":[
		"KHR_materials_specular",
		"KHR_materials_ior"
	],
	"scene":0,
	"scenes":[
		{
			"name":"Scene",
			"nodes":[
				0,
				1
			]
		}
	],
	"nodes":[
		{
			"mesh":0,
			"name":"Plane.001",
			"scale":[
				0.699999988079071,
				1,
				0.699999988079071
			],
			"translation":[
				0,
				-2.5,
				0
			]
		},
		{
			"mesh":1,
			"name":"Plane"
		}
	],
	"materials":[
		{
			"alphaMode":"BLEND",
			"doubleSided":true,
			"name":"Material.010",
			"pbrMetallicRoughness":{
				"baseColorFactor":[
					1,
					1,
					1,
					0.47272729873657227
				],
				"baseColorTexture":{
					"index":0
				},
				"metallicFactor":0,
				"roughnessFactor":0.5
			}
		},
		{
			"doubleSided":true,
			"extensions":{
				"KHR_materials_specular":{
					"specularColorFactor":[
						0,
						0,
						0
					]
				},
				"KHR_materials_ior":{
					"ior":1.4500000476837158
				}
			},
			"name":"Material",
			"pbrMetallicRoughness":{
				"baseColorFactor":[
					0.18737295269966125,
					0.7999992966651917,
					0.020057937130331993,
					1
				],
				"metallicFactor":0,
				"roughnessFactor":0.6535432934761047
			}
		},
		{
			"doubleSided":true,
			"extensions":{
				"KHR_materials_specular":{
					"specularColorFactor":[
						0,
						0,
						0
					]
				},
				"KHR_materials_ior":{
					"ior":1.4500000476837158
				}
			},
			"name":"Material.001",
			"pbrMetallicRoughness":{
				"baseColorFactor":[
					0.2824191749095917,
					0.2888815104961395,
					0.06198631599545479,
					1
				],
				"metallicFactor":0,
				"roughnessFactor":0.5
			}
		},
		{
			"doubleSided":true,
			"extensions":{
				"KHR_materials_specular":{
					"specularColorFactor":[
						0,
						0,
						0
					]
				},
				"KHR_materials_ior":{
					"ior":1.4500000476837158
				}
			},
			"name":"Material.002",
			"pbrMetallicRoughness":{
				"baseColorTexture":{
					"index":1
				},
				"metallicFactor":0,
				"roughnessFactor":0.5
			}
		},
		{
			"doubleSided":true,
			"extensions":{
				"KHR_materials_specular":{
					"specularColorFactor":[
						0,
						0,
						0
					]
				},
				"KHR_materials_ior":{
					"ior":1.4500000476837158
				}
			},
			"name":"Material.003",
			"pbrMetallicRoughness":{
				"baseColorFactor":[
					0.41474562883377075,
					0.41474562883377075,
					0.41474562883377075,
					1
				],
				"metallicFactor":0,
				"roughnessFactor":0.5
			}
		}
	],
	"meshes":[
		{
			"name":"Plane.003",
			"primitives":[
				{
					"attributes":{
						"POSITION":0,
						"NORMAL":1,
						"TEXCOORD_0":2
					},
					"indices":3,
					"material":0
				}
			]
		},
		{
			"name":"Plane",
			"primitives":[
				{
					"attributes":{
						"POSITION":4,
						"NORMAL":5,
						"TEXCOORD_0":6
					},
					"indices":7,
					"material":1
				},
				{
					"attributes":{
						"POSITION":8,
						"NORMAL":9,
						"TEXCOORD_0":10
					},
					"indices":11,
					"material":2
				},
				{
					"attributes":{
						"POSITION":12,
						"NORMAL":13,
						"TEXCOORD_0":14
					},
					"indices":15,
					"material":3
				},
				{
					"attributes":{
						"POSITION":16,
						"NORMAL":17,
						"TEXCOORD_0":18
					},
					"indices":19,
					"material":4
				}
			]
		}
	],
	"textures":[
		{
			"sampler":0,
			"source":0
		},
		{
			"sampler":0,
			"source":0
		}
	],
	"images":[
		{
			"mimeType":"image/png",
			"name":"grass",
			"uri":"grass.png"
		}
	],
	"accessors":[
		{
			"bufferView":0,
			"componentType":5126,
			"count":12898,
			"max":[
				100.04216003417969,
				1.6890285015106201,
				100.0530776977539
			],
			"min":[
				-100.11869812011719,
				-1.622202754020691,
				-100.05160522460938
			],
			"type":"VEC3"
		},
		{
			"bufferView":1,
			"componentType":5126,
			"count":12898,
			"type":"VEC3"
		},
		{
			"bufferView":2,
			"componentType":5126,
			"count":12898,
			"type":"VEC2"
		},
		{
			"bufferView":3,
			"componentType":5123,
			"count":15222,
			"type":"SCALAR"
		},
		{
			"bufferView":4,
			"componentType":5126,
			"count":4541,
			"max":[
				71.01617431640625,
				7.42099142074585,
				70.6954116821289
			],
			"min":[
				-72.31605529785156,
				-11.281957626342773,
				-70.92389678955078
			],
			"type":"VEC3"
		},
		{
			"bufferView":5,
			"componentType":5126,
			"count":4541,
			"type":"VEC3"
		},
		{
			"bufferView":6,
			"componentType":5126,
			"count":4541,
			"type":"VEC2"
		},
		{
			"bufferView":7,
			"componentType":5123,
			"count":5643,
			"type":"SCALAR"
		},
		{
			"bufferView":8,
			"componentType":5126,
			"count":1232,
			"max":[
				71.01617431640625,
				-0.30278652906417847,
				71.24615478515625
			],
			"min":[
				-72.31605529785156,
				-10.69539737701416,
				-70.98573303222656
			],
			"type":"VEC3"
		},
		{
			"bufferView":9,
			"componentType":5126,
			"count":1232,
			"type":"VEC3"
		},
		{
			"bufferView":10,
			"componentType":5126,
			"count":1232,
			"type":"VEC2"
		},
		{
			"bufferView":11,
			"componentType":5123,
			"count":1554,
			"type":"SCALAR"
		},
		{
			"bufferView":12,
			"componentType":5126,
			"count":2275,
			"max":[
				70.33805847167969,
				15.488202095031738,
				66.94171905517578
			],
			"min":[
				-66.78994750976562,
				-9.664424896240234,
				-70.98573303222656
			],
			"type":"VEC3"
		},
		{
			"bufferView":13,
			"componentType":5126,
			"count":2275,
			"type":"VEC3"
		},
		{
			"bufferView":14,
			"componentType":5126,
			"count":2275,
			"type":"VEC2"
		},
		{
			"bufferView":15,
			"componentType":5123,
			"count":2865,
			"type":"SCALAR"
		},
		{
			"bufferView":16,
			"componentType":5126,
			"count":78,
			"max":[
				25.51872444152832,
				16.250520706176758,
				23.821632385253906
			],
			"min":[
				-30.707691192626953,
				9.097094535827637,
				-53.9546012878418
			],
			"type":"VEC3"
		},
		{
			"bufferView":17,
			"componentType":5126,
			"count":78,
			"type":"VEC3"
		},
		{
			"bufferView":18,
			"componentType":5126,
			"count":78,
			"type":"VEC2"
		},
		{
			"bufferView":19,
			"componentType":5123,
			"count":96,
			"type":"SCALAR"
		}
	],
	"bufferViews":[
		{
			"buffer":0,
			"byteLength":154776,
			"byteOffset":0,
			"target":34962
		},
		{
			"buffer":0,
			"byteLength":154776,
			"byteOffset":154776,
			"target":34962
		},
		{
			"buffer":0,
			"byteLength":103184,
			"byteOffset":309552,
			"target":34962
		},
		{
			"buffer":0,
			"byteLength":30444,
			"byteOffset":412736,
			"target":34963
		},
		{
			"buffer":0,
			"byteLength":54492,
			"byteOffset":443180,
			"target":34962
		},
		{
			"buffer":0,
			"byteLength":54492,
			"byteOffset":497672,
			"target":34962
		},
		{
			"buffer":0,
			"byteLength":36328,
			"byteOffset":552164,
			"target":34962
		},
		{
			"buffer":0,
			"byteLength":11286,
			"byteOffset":588492,
			"target":34963
		},
		{
			"buffer":0,
			"byteLength":14784,
			"byteOffset":599780,
			"target":34962
		},
		{
			"buffer":0,
			"byteLength":14784,
			"byteOffset":614564,
			"target":34962
		},
		{
			"buffer":0,
			"byteLength":9856,
			"byteOffset":629348,
			"target":34962
		},
		{
			"buffer":0,
			"byteLength":3108,
			"byteOffset":639204,
			"target":34963
		},
		{
			"buffer":0,
			"byteLength":27300,
			"byteOffset":642312,
			"target":34962
		},
		{
			"buffer":0,
			"byteLength":27300,
			"byteOffset":669612,
			"target":34962
		},
		{
			"buffer":0,
			"byteLength":18200,
			"byteOffset":696912,
			"target":34962
		},
		{
			"buffer":0,
			"byteLength":5730,
			"byteOffset":715112,
			"target":34963
		},
		{
			"buffer":0,
			"byteLength":936,
			"byteOffset":720844,
			"target":34962
		},
		{
			"buffer":0,
			"byteLength":936,
			"byteOffset":721780,
			"target":34962
		},
		{
			"buffer":0,
			"byteLength":624,
			"byteOffset":722716,
			"target":34962
		},
		{
			"buffer":0,
			"byteLength":192,
			"byteOffset":723340,
			"target":34963
		}
	],
	"samplers":[
		{
			"magFilter":9729,
			"minFilter":9987
		}
	],
	"buffers":[
		{
			"byteLength":723532,
			"uri":"map.bin"
		}
	]
}
