{
	"asset":{
		"generator":"Khronos glTF Blender I/O v3.6.28",
		"version":"2.0"
	},
	"scene":0,
	"scenes":[
		{
			"name":"Scene",
			"nodes":[
				8,
				9,
				10
			]
		}
	],
	"nodes":[
		{
			"name":"BezierCircle",
			"rotation":[
				-0.7071068286895752,
				-0.7071068286895752,
				0,
				3.090862321641907e-08
			],
			"scale":[
				0.7009604573249817,
				0.5858583450317383,
				1.3732677698135376
			],
			"translation":[
				1.3375580310821533,
				-0.2225489616394043,
				0
			]
		},
		{
			"mesh":0,
			"name":"top_glava",
			"scale":[
				1.8967301845550537,
				0.13254056870937347,
				1.8967301845550537
			],
			"translation":[
				0,
				-0.9802027344703674,
				0
			]
		},
		{
			"children":[
				1
			],
			"mesh":1,
			"name":"top",
			"rotation":[
				-0.7071068286895752,
				0,
				0,
				0.7071068286895752
			],
			"scale":[
				0.12413030862808228,
				1.309916615486145,
				0.12413030862808228
			],
			"translation":[
				0,
				0.11869192123413086,
				1.569487452507019
			]
		},
		{
			"children":[
				2
			],
			"mesh":2,
			"name":"glava",
			"scale":[
				0.9017369151115417,
				0.9017369151115417,
				0.9017369151115417
			],
			"translation":[
				0,
				1.0409669876098633,
				0
			]
		},
		{
			"mesh":3,
			"name":"gosenica",
			"scale":[
				0.4479590654373169,
				0.535968542098999,
				0.535968542098999
			],
			"translation":[
				1.3375580310821533,
				-0.2225489616394043,
				0
			]
		},
		{
			"mesh":4,
			"name":"kolo01",
			"rotation":[
				0,
				0,
				-0.7071068286895752,
				0.7071068286895752
			],
			"scale":[
				0.6379819512367249,
				0.2993791103363037,
				0.6379819512367249
			],
			"translation":[
				1.3166301250457764,
				-0.274336576461792,
				1.1782212257385254
			]
		},
		{
			"mesh":5,
			"name":"kolo02",
			"rotation":[
				0,
				0,
				-0.7071068286895752,
				0.7071068286895752
			],
			"scale":[
				0.5502595901489258,
				0.2993791103363037,
				0.5502595901489258
			],
			"translation":[
				1.3166301250457764,
				-0.3846272826194763,
				-0.29589444398880005
			]
		},
		{
			"mesh":6,
			"name":"kolo03",
			"rotation":[
				0,
				0,
				-0.7071068286895752,
				0.7071068286895752
			],
			"scale":[
				0.4389416575431824,
				0.2993791103363037,
				0.4389416575431824
			],
			"translation":[
				1.3166301250457764,
				-0.4830372929573059,
				-1.5783988237380981
			]
		},
		{
			"children":[
				0,
				3,
				4,
				5,
				6,
				7
			],
			"mesh":7,
			"name":"telo",
			"translation":[
				0,
				1.044630527496338,
				0
			]
		},
		{
			"camera":0,
			"name":"Camera",
			"rotation":[
				0.000447814934886992,
				0.9957662224769592,
				0.09189438819885254,
				0.0022103791125118732
			],
			"translation":[
				0,
				6.562983512878418,
				-22.418285369873047
			]
		},
		{
			"name":"Empty",
			"rotation":[
				0.5,
				0.5,
				-0.5,
				0.5
			],
			"scale":[
				1.1507798433303833,
				1,
				1
			],
			"translation":[
				0,
				1.537859559059143,
				-0.2333184778690338
			]
		}
	],
	"cameras":[
		{
			"name":"Camera.001",
			"perspective":{
				"aspectRatio":1.7777777777777777,
				"yfov":0.39959652046304894,
				"zfar":1000,
				"znear":0.10000000149011612
			},
			"type":"perspective"
		}
	],
	"materials":[
		{
			"doubleSided":true,
			"name":"Material.002",
			"pbrMetallicRoughness":{
				"baseColorTexture":{
					"index":0
				},
				"metallicFactor":0,
				"roughnessFactor":0.5
			}
		},
		{
			"doubleSided":true,
			"name":"Material.001",
			"pbrMetallicRoughness":{
				"baseColorTexture":{
					"index":1
				},
				"metallicFactor":0,
				"roughnessFactor":0.5
			}
		},
		{
			"doubleSided":true,
			"name":"gosenica",
			"pbrMetallicRoughness":{
				"baseColorTexture":{
					"index":2
				},
				"metallicFactor":0,
				"roughnessFactor":0.5
			}
		},
		{
			"doubleSided":true,
			"name":"kolesca",
			"pbrMetallicRoughness":{
				"baseColorTexture":{
					"index":3
				},
				"metallicFactor":0,
				"roughnessFactor":0.5
			}
		}
	],
	"meshes":[
		{
			"name":"Cylinder.007",
			"primitives":[
				{
					"attributes":{
						"POSITION":0,
						"NORMAL":1,
						"TEXCOORD_0":2
					},
					"indices":3,
					"material":0
				}
			]
		},
		{
			"name":"Cylinder.006",
			"primitives":[
				{
					"attributes":{
						"POSITION":4,
						"NORMAL":5,
						"TEXCOORD_0":6
					},
					"indices":3,
					"material":1
				}
			]
		},
		{
			"name":"Cube.002",
			"primitives":[
				{
					"attributes":{
						"POSITION":7,
						"NORMAL":8,
						"TEXCOORD_0":9
					},
					"indices":10,
					"material":0
				}
			]
		},
		{
			"name":"Plane",
			"primitives":[
				{
					"attributes":{
						"POSITION":11,
						"NORMAL":12,
						"TEXCOORD_0":13
					},
					"indices":14,
					"material":2
				}
			]
		},
		{
			"name":"Cylinder.001",
			"primitives":[
				{
					"attributes":{
						"POSITION":15,
						"NORMAL":16,
						"TEXCOORD_0":17
					},
					"indices":18,
					"material":3
				}
			]
		},
		{
			"name":"Cylinder.004",
			"primitives":[
				{
					"attributes":{
						"POSITION":19,
						"NORMAL":20,
						"TEXCOORD_0":21
					},
					"indices":18,
					"material":3
				}
			]
		},
		{
			"name":"Cylinder.005",
			"primitives":[
				{
					"attributes":{
						"POSITION":22,
						"NORMAL":23,
						"TEXCOORD_0":24
					},
					"indices":18,
					"material":3
				}
			]
		},
		{
			"name":"Cube.001",
			"primitives":[
				{
					"attributes":{
						"POSITION":25,
						"NORMAL":26,
						"TEXCOORD_0":27
					},
					"indices":28,
					"material":1
				}
			]
		}
	],
	"textures":[
		{
			"sampler":0,
			"source":0
		},
		{
			"sampler":0,
			"source":0
		},
		{
			"sampler":0,
			"source":0
		},
		{
			"sampler":0,
			"source":0
		}
	],
	"images":[
		{
			"mimeType":"image/png",
			"name":"base",
			"uri":"base.png"
		}
	],
	"accessors":[
		{
			"bufferView":0,
			"componentType":5126,
			"count":36,
			"max":[
				0.8660253882408142,
				1,
				1
			],
			"min":[
				-0.8660253882408142,
				-1,
				-1
			],
			"type":"VEC3"
		},
		{
			"bufferView":1,
			"componentType":5126,
			"count":36,
			"type":"VEC3"
		},
		{
			"bufferView":2,
			"componentType":5126,
			"count":36,
			"type":"VEC2"
		},
		{
			"bufferView":3,
			"componentType":5123,
			"count":60,
			"type":"SCALAR"
		},
		{
			"bufferView":4,
			"componentType":5126,
			"count":36,
			"max":[
				0.8660253882408142,
				1,
				1
			],
			"min":[
				-0.8660253882408142,
				-1,
				-1
			],
			"type":"VEC3"
		},
		{
			"bufferView":5,
			"componentType":5126,
			"count":36,
			"type":"VEC3"
		},
		{
			"bufferView":6,
			"componentType":5126,
			"count":36,
			"type":"VEC2"
		},
		{
			"bufferView":7,
			"componentType":5126,
			"count":114,
			"max":[
				1,
				0.6194288730621338,
				1
			],
			"min":[
				-1,
				-0.6302154064178467,
				-1
			],
			"type":"VEC3"
		},
		{
			"bufferView":8,
			"componentType":5126,
			"count":114,
			"type":"VEC3"
		},
		{
			"bufferView":9,
			"componentType":5126,
			"count":114,
			"type":"VEC2"
		},
		{
			"bufferView":10,
			"componentType":5123,
			"count":192,
			"type":"SCALAR"
		},
		{
			"bufferView":11,
			"componentType":5126,
			"count":9610,
			"max":[
				0.6992816925048828,
				1.266466736793518,
				3.701185703277588
			],
			"min":[
				-6.671069145202637,
				-1.5401058197021484,
				-4.162497043609619
			],
			"type":"VEC3"
		},
		{
			"bufferView":12,
			"componentType":5126,
			"count":9610,
			"type":"VEC3"
		},
		{
			"bufferView":13,
			"componentType":5126,
			"count":9610,
			"type":"VEC2"
		},
		{
			"bufferView":14,
			"componentType":5123,
			"count":15552,
			"type":"SCALAR"
		},
		{
			"bufferView":15,
			"componentType":5126,
			"count":144,
			"max":[
				1,
				1,
				1
			],
			"min":[
				-1.0000004768371582,
				-9.795738220214844,
				-1.0000001192092896
			],
			"type":"VEC3"
		},
		{
			"bufferView":16,
			"componentType":5126,
			"count":144,
			"type":"VEC3"
		},
		{
			"bufferView":17,
			"componentType":5126,
			"count":144,
			"type":"VEC2"
		},
		{
			"bufferView":18,
			"componentType":5123,
			"count":264,
			"type":"SCALAR"
		},
		{
			"bufferView":19,
			"componentType":5126,
			"count":144,
			"max":[
				1,
				1,
				1
			],
			"min":[
				-1.0000005960464478,
				-9.795738220214844,
				-1.000000238418579
			],
			"type":"VEC3"
		},
		{
			"bufferView":20,
			"componentType":5126,
			"count":144,
			"type":"VEC3"
		},
		{
			"bufferView":21,
			"componentType":5126,
			"count":144,
			"type":"VEC2"
		},
		{
			"bufferView":22,
			"componentType":5126,
			"count":144,
			"max":[
				1,
				1,
				1
			],
			"min":[
				-1.0000005960464478,
				-9.795738220214844,
				-1
			],
			"type":"VEC3"
		},
		{
			"bufferView":23,
			"componentType":5126,
			"count":144,
			"type":"VEC3"
		},
		{
			"bufferView":24,
			"componentType":5126,
			"count":144,
			"type":"VEC2"
		},
		{
			"bufferView":25,
			"componentType":5126,
			"count":72,
			"max":[
				1,
				0.693963348865509,
				1.6177799701690674
			],
			"min":[
				-1,
				-0.8126674890518188,
				-1.772115707397461
			],
			"type":"VEC3"
		},
		{
			"bufferView":26,
			"componentType":5126,
			"count":72,
			"type":"VEC3"
		},
		{
			"bufferView":27,
			"componentType":5126,
			"count":72,
			"type":"VEC2"
		},
		{
			"bufferView":28,
			"componentType":5123,
			"count":150,
			"type":"SCALAR"
		}
	],
	"bufferViews":[
		{
			"buffer":0,
			"byteLength":432,
			"byteOffset":0,
			"target":34962
		},
		{
			"buffer":0,
			"byteLength":432,
			"byteOffset":432,
			"target":34962
		},
		{
			"buffer":0,
			"byteLength":288,
			"byteOffset":864,
			"target":34962
		},
		{
			"buffer":0,
			"byteLength":120,
			"byteOffset":1152,
			"target":34963
		},
		{
			"buffer":0,
			"byteLength":432,
			"byteOffset":1272,
			"target":34962
		},
		{
			"buffer":0,
			"byteLength":432,
			"byteOffset":1704,
			"target":34962
		},
		{
			"buffer":0,
			"byteLength":288,
			"byteOffset":2136,
			"target":34962
		},
		{
			"buffer":0,
			"byteLength":1368,
			"byteOffset":2424,
			"target":34962
		},
		{
			"buffer":0,
			"byteLength":1368,
			"byteOffset":3792,
			"target":34962
		},
		{
			"buffer":0,
			"byteLength":912,
			"byteOffset":5160,
			"target":34962
		},
		{
			"buffer":0,
			"byteLength":384,
			"byteOffset":6072,
			"target":34963
		},
		{
			"buffer":0,
			"byteLength":115320,
			"byteOffset":6456,
			"target":34962
		},
		{
			"buffer":0,
			"byteLength":115320,
			"byteOffset":121776,
			"target":34962
		},
		{
			"buffer":0,
			"byteLength":76880,
			"byteOffset":237096,
			"target":34962
		},
		{
			"buffer":0,
			"byteLength":31104,
			"byteOffset":313976,
			"target":34963
		},
		{
			"buffer":0,
			"byteLength":1728,
			"byteOffset":345080,
			"target":34962
		},
		{
			"buffer":0,
			"byteLength":1728,
			"byteOffset":346808,
			"target":34962
		},
		{
			"buffer":0,
			"byteLength":1152,
			"byteOffset":348536,
			"target":34962
		},
		{
			"buffer":0,
			"byteLength":528,
			"byteOffset":349688,
			"target":34963
		},
		{
			"buffer":0,
			"byteLength":1728,
			"byteOffset":350216,
			"target":34962
		},
		{
			"buffer":0,
			"byteLength":1728,
			"byteOffset":351944,
			"target":34962
		},
		{
			"buffer":0,
			"byteLength":1152,
			"byteOffset":353672,
			"target":34962
		},
		{
			"buffer":0,
			"byteLength":1728,
			"byteOffset":354824,
			"target":34962
		},
		{
			"buffer":0,
			"byteLength":1728,
			"byteOffset":356552,
			"target":34962
		},
		{
			"buffer":0,
			"byteLength":1152,
			"byteOffset":358280,
			"target":34962
		},
		{
			"buffer":0,
			"byteLength":864,
			"byteOffset":359432,
			"target":34962
		},
		{
			"buffer":0,
			"byteLength":864,
			"byteOffset":360296,
			"target":34962
		},
		{
			"buffer":0,
			"byteLength":576,
			"byteOffset":361160,
			"target":34962
		},
		{
			"buffer":0,
			"byteLength":300,
			"byteOffset":361736,
			"target":34963
		}
	],
	"samplers":[
		{
			"magFilter":9729,
			"minFilter":9987
		}
	],
	"buffers":[
		{
			"byteLength":362036,
			"uri":"tank.bin"
		}
	]
}
