{
	"asset":{
		"generator":"Khronos glTF Blender I/O v4.0.44",
		"version":"2.0"
	},
	"scene":0,
	"scenes":[
		{
			"extras":{
				"automirror":{}
			},
			"name":"Scene",
			"nodes":[
				0,
				1,
				2,
				3,
				4,
				5,
				6,
				7,
				17
			]
		}
	],
	"nodes":[
		{
			"mesh":0,
			"name":"Sphere",
			"scale":[
				-0.14608748257160187,
				-0.14608748257160187,
				-0.14608748257160187
			],
			"translation":[
				-0.022069931030273438,
				2.169497013092041,
				2.56286883354187
			]
		},
		{
			"mesh":1,
			"name":"Cube",
			"translation":[
				5.402939796447754,
				1,
				10.115363121032715
			]
		},
		{
			"mesh":2,
			"name":"Tla",
			"scale":[
				100,
				100,
				100
			]
		},
		{
			"mesh":3,
			"name":"Stena1",
			"rotation":[
				0.7071068286895752,
				0,
				0,
				0.7071068286895752
			],
			"scale":[
				100,
				100,
				100
			],
			"translation":[
				0,
				100,
				-100
			]
		},
		{
			"mesh":4,
			"name":"Stena3",
			"rotation":[
				0.7071068286895752,
				0,
				0,
				0.7071068286895752
			],
			"scale":[
				100,
				100,
				100
			],
			"translation":[
				0,
				100,
				100
			]
		},
		{
			"mesh":5,
			"name":"Stena2",
			"rotation":[
				0.5,
				0.5,
				-0.5,
				0.5
			],
			"scale":[
				100,
				100,
				100
			],
			"translation":[
				100,
				100,
				0
			]
		},
		{
			"mesh":6,
			"name":"Stena4",
			"rotation":[
				0.5,
				0.5,
				-0.5,
				0.5
			],
			"scale":[
				100,
				100,
				100
			],
			"translation":[
				-100,
				100,
				0
			]
		},
		{
			"mesh":7,
			"name":"Stena5",
			"scale":[
				100,
				100,
				100
			],
			"translation":[
				0,
				200,
				0
			]
		},
		{
			"name":"BezierCircle",
			"rotation":[
				-0.7071068286895752,
				-0.7071068286895752,
				0,
				3.090862321641907e-08
			],
			"scale":[
				0.7009604573249817,
				0.5858583450317383,
				1.3732677698135376
			],
			"translation":[
				1.3375580310821533,
				-0.2225489616394043,
				0
			]
		},
		{
			"camera":0,
			"name":"Camera",
			"rotation":[
				-0.0022090179845690727,
				-0.9990166425704956,
				-0.04395436495542526,
				0.005393308121711016
			],
			"scale":[
				1.1089709997177124,
				1.1089709997177124,
				1.1089709997177124
			],
			"translation":[
				0,
				6.292097091674805,
				-28.50711441040039
			]
		},
		{
			"mesh":8,
			"name":"top_glava",
			"scale":[
				1.8967301845550537,
				0.13254056870937347,
				1.8967301845550537
			],
			"translation":[
				0,
				-0.9802027344703674,
				0
			]
		},
		{
			"children":[
				10
			],
			"mesh":9,
			"name":"top",
			"rotation":[
				-0.7071068286895752,
				0,
				0,
				0.7071068286895752
			],
			"scale":[
				0.12413030862808228,
				1.309916615486145,
				0.12413030862808228
			],
			"translation":[
				0,
				0.11869192123413086,
				1.569487452507019
			]
		},
		{
			"children":[
				9,
				11
			],
			"mesh":10,
			"name":"glava",
			"scale":[
				0.9017369151115417,
				0.9017369151115417,
				0.9017369151115417
			],
			"translation":[
				0,
				1.0409669876098633,
				0
			]
		},
		{
			"mesh":11,
			"name":"gosenica",
			"scale":[
				0.4479590654373169,
				0.535968542098999,
				0.535968542098999
			],
			"translation":[
				1.3375580310821533,
				-0.2225489616394043,
				0
			]
		},
		{
			"mesh":12,
			"name":"kolo01",
			"rotation":[
				0,
				0,
				-0.7071068286895752,
				0.7071068286895752
			],
			"scale":[
				0.6379819512367249,
				0.2993791103363037,
				0.6379819512367249
			],
			"translation":[
				1.3166301250457764,
				-0.274336576461792,
				1.1782212257385254
			]
		},
		{
			"mesh":13,
			"name":"kolo02",
			"rotation":[
				0,
				0,
				-0.7071068286895752,
				0.7071068286895752
			],
			"scale":[
				0.5502595901489258,
				0.2993791103363037,
				0.5502595901489258
			],
			"translation":[
				1.3166301250457764,
				-0.3846272826194763,
				-0.29589444398880005
			]
		},
		{
			"mesh":14,
			"name":"kolo03",
			"rotation":[
				0,
				0,
				-0.7071068286895752,
				0.7071068286895752
			],
			"scale":[
				0.4389416575431824,
				0.2993791103363037,
				0.4389416575431824
			],
			"translation":[
				1.3166301250457764,
				-0.4830372929573059,
				-1.5783988237380981
			]
		},
		{
			"children":[
				8,
				12,
				13,
				14,
				15,
				16
			],
			"mesh":15,
			"name":"telo",
			"translation":[
				0,
				1.044630527496338,
				0
			]
		}
	],
	"cameras":[
		{
			"name":"Camera",
			"perspective":{
				"aspectRatio":1.7777777777777777,
				"yfov":0.39959652046304894,
				"zfar":1000,
				"znear":0.10000000149011612
			},
			"type":"perspective"
		}
	],
	"materials":[
		{
			"doubleSided":true,
			"name":"Material.014",
			"pbrMetallicRoughness":{
				"baseColorTexture":{
					"index":0
				},
				"metallicFactor":0,
				"roughnessFactor":0.5
			}
		},
		{
			"doubleSided":true,
			"name":"Material.010",
			"pbrMetallicRoughness":{
				"baseColorTexture":{
					"index":1
				},
				"metallicFactor":0,
				"roughnessFactor":0.5
			}
		},
		{
			"doubleSided":true,
			"name":"Material",
			"pbrMetallicRoughness":{
				"baseColorTexture":{
					"index":2
				},
				"metallicFactor":0,
				"roughnessFactor":0.5
			}
		},
		{
			"doubleSided":true,
			"name":"Material.002",
			"pbrMetallicRoughness":{
				"baseColorTexture":{
					"index":3
				},
				"metallicFactor":0,
				"roughnessFactor":0.5
			}
		},
		{
			"doubleSided":true,
			"name":"Material.003",
			"pbrMetallicRoughness":{
				"baseColorTexture":{
					"index":4
				},
				"metallicFactor":0,
				"roughnessFactor":0.5
			}
		},
		{
			"doubleSided":true,
			"name":"Material.004",
			"pbrMetallicRoughness":{
				"baseColorTexture":{
					"index":5
				},
				"metallicFactor":0,
				"roughnessFactor":0.5
			}
		},
		{
			"doubleSided":true,
			"name":"Material.007",
			"pbrMetallicRoughness":{
				"baseColorTexture":{
					"index":6
				},
				"metallicFactor":0,
				"roughnessFactor":0.5
			}
		},
		{
			"doubleSided":true,
			"name":"Material.008",
			"pbrMetallicRoughness":{
				"baseColorTexture":{
					"index":7
				},
				"metallicFactor":0,
				"roughnessFactor":0.5
			}
		},
		{
			"doubleSided":true,
			"name":"Material.005",
			"pbrMetallicRoughness":{
				"baseColorTexture":{
					"index":8
				},
				"metallicFactor":0,
				"roughnessFactor":0.5
			}
		},
		{
			"doubleSided":true,
			"name":"Material.001",
			"pbrMetallicRoughness":{
				"baseColorTexture":{
					"index":9
				},
				"metallicFactor":0,
				"roughnessFactor":0.5
			}
		},
		{
			"doubleSided":true,
			"name":"Material.006",
			"pbrMetallicRoughness":{
				"baseColorTexture":{
					"index":10
				},
				"metallicFactor":0,
				"roughnessFactor":0.5
			}
		}
	],
	"meshes":[
		{
			"name":"Sphere.003",
			"primitives":[
				{
					"attributes":{
						"POSITION":0,
						"NORMAL":1,
						"TEXCOORD_0":2
					},
					"indices":3,
					"material":0
				}
			]
		},
		{
			"name":"Cube",
			"primitives":[
				{
					"attributes":{
						"POSITION":4,
						"NORMAL":5,
						"TEXCOORD_0":6
					},
					"indices":7,
					"material":1
				}
			]
		},
		{
			"name":"Plane.001",
			"primitives":[
				{
					"attributes":{
						"POSITION":8,
						"NORMAL":9,
						"TEXCOORD_0":10
					},
					"indices":11,
					"material":2
				}
			]
		},
		{
			"name":"Plane.002",
			"primitives":[
				{
					"attributes":{
						"POSITION":12,
						"NORMAL":13,
						"TEXCOORD_0":14
					},
					"indices":11,
					"material":3
				}
			]
		},
		{
			"name":"Plane.003",
			"primitives":[
				{
					"attributes":{
						"POSITION":15,
						"NORMAL":16,
						"TEXCOORD_0":17
					},
					"indices":11,
					"material":4
				}
			]
		},
		{
			"name":"Plane.004",
			"primitives":[
				{
					"attributes":{
						"POSITION":18,
						"NORMAL":19,
						"TEXCOORD_0":20
					},
					"indices":11,
					"material":5
				}
			]
		},
		{
			"name":"Plane.005",
			"primitives":[
				{
					"attributes":{
						"POSITION":21,
						"NORMAL":22,
						"TEXCOORD_0":23
					},
					"indices":11,
					"material":6
				}
			]
		},
		{
			"name":"Plane.006",
			"primitives":[
				{
					"attributes":{
						"POSITION":24,
						"NORMAL":25,
						"TEXCOORD_0":26
					},
					"indices":11,
					"material":7
				}
			]
		},
		{
			"name":"Cylinder.007",
			"primitives":[
				{
					"attributes":{
						"POSITION":27,
						"NORMAL":28,
						"TEXCOORD_0":29
					},
					"indices":30,
					"material":8
				}
			]
		},
		{
			"name":"Cylinder.006",
			"primitives":[
				{
					"attributes":{
						"POSITION":31,
						"NORMAL":32,
						"TEXCOORD_0":33
					},
					"indices":30,
					"material":8
				}
			]
		},
		{
			"name":"Cube.002",
			"primitives":[
				{
					"attributes":{
						"POSITION":34,
						"NORMAL":35,
						"TEXCOORD_0":36
					},
					"indices":37,
					"material":9
				}
			]
		},
		{
			"name":"Plane",
			"primitives":[
				{
					"attributes":{
						"POSITION":38,
						"NORMAL":39,
						"TEXCOORD_0":40
					},
					"indices":41,
					"material":10
				}
			]
		},
		{
			"name":"Cylinder.001",
			"primitives":[
				{
					"attributes":{
						"POSITION":42,
						"NORMAL":43,
						"TEXCOORD_0":44
					},
					"indices":45,
					"material":10
				}
			]
		},
		{
			"name":"Cylinder.004",
			"primitives":[
				{
					"attributes":{
						"POSITION":46,
						"NORMAL":47,
						"TEXCOORD_0":48
					},
					"indices":45,
					"material":10
				}
			]
		},
		{
			"name":"Cylinder.005",
			"primitives":[
				{
					"attributes":{
						"POSITION":49,
						"NORMAL":50,
						"TEXCOORD_0":51
					},
					"indices":45,
					"material":10
				}
			]
		},
		{
			"name":"Cube.001",
			"primitives":[
				{
					"attributes":{
						"POSITION":52,
						"NORMAL":53,
						"TEXCOORD_0":54
					},
					"indices":55,
					"material":8
				}
			]
		}
	],
	"textures":[
		{
			"sampler":0,
			"source":0
		},
		{
			"sampler":0,
			"source":0
		},
		{
			"sampler":0,
			"source":1
		},
		{
			"sampler":0,
			"source":2
		},
		{
			"sampler":0,
			"source":2
		},
		{
			"sampler":0,
			"source":2
		},
		{
			"sampler":0,
			"source":2
		},
		{
			"sampler":0,
			"source":2
		},
		{
			"sampler":0,
			"source":0
		},
		{
			"sampler":0,
			"source":0
		},
		{
			"sampler":0,
			"source":0
		}
	],
	"images":[
		{
			"mimeType":"image/png",
			"name":"base",
			"uri":"base.png"
		},
		{
			"mimeType":"image/png",
			"name":"grass",
			"uri":"grass.png"
		},
		{
			"mimeType":"image/jpeg",
			"name":"sky",
			"uri":"sky.jpg"
		}
	],
	"accessors":[
		{
			"bufferView":0,
			"componentType":5126,
			"count":1984,
			"max":[
				0.9999997019767761,
				1,
				0.9999993443489075
			],
			"min":[
				-0.9999990463256836,
				-1,
				-1
			],
			"type":"VEC3"
		},
		{
			"bufferView":1,
			"componentType":5126,
			"count":1984,
			"type":"VEC3"
		},
		{
			"bufferView":2,
			"componentType":5126,
			"count":1984,
			"type":"VEC2"
		},
		{
			"bufferView":3,
			"componentType":5123,
			"count":2880,
			"type":"SCALAR"
		},
		{
			"bufferView":4,
			"componentType":5126,
			"count":24,
			"max":[
				1,
				1,
				1
			],
			"min":[
				-1,
				-1,
				-1
			],
			"type":"VEC3"
		},
		{
			"bufferView":5,
			"componentType":5126,
			"count":24,
			"type":"VEC3"
		},
		{
			"bufferView":6,
			"componentType":5126,
			"count":24,
			"type":"VEC2"
		},
		{
			"bufferView":7,
			"componentType":5123,
			"count":36,
			"type":"SCALAR"
		},
		{
			"bufferView":8,
			"componentType":5126,
			"count":4,
			"max":[
				1,
				0,
				1
			],
			"min":[
				-1,
				0,
				-1
			],
			"type":"VEC3"
		},
		{
			"bufferView":9,
			"componentType":5126,
			"count":4,
			"type":"VEC3"
		},
		{
			"bufferView":10,
			"componentType":5126,
			"count":4,
			"type":"VEC2"
		},
		{
			"bufferView":11,
			"componentType":5123,
			"count":6,
			"type":"SCALAR"
		},
		{
			"bufferView":12,
			"componentType":5126,
			"count":4,
			"max":[
				1,
				0,
				1
			],
			"min":[
				-1,
				0,
				-1
			],
			"type":"VEC3"
		},
		{
			"bufferView":13,
			"componentType":5126,
			"count":4,
			"type":"VEC3"
		},
		{
			"bufferView":14,
			"componentType":5126,
			"count":4,
			"type":"VEC2"
		},
		{
			"bufferView":15,
			"componentType":5126,
			"count":4,
			"max":[
				1,
				0,
				1
			],
			"min":[
				-1,
				0,
				-1
			],
			"type":"VEC3"
		},
		{
			"bufferView":16,
			"componentType":5126,
			"count":4,
			"type":"VEC3"
		},
		{
			"bufferView":17,
			"componentType":5126,
			"count":4,
			"type":"VEC2"
		},
		{
			"bufferView":18,
			"componentType":5126,
			"count":4,
			"max":[
				1,
				0,
				1
			],
			"min":[
				-1,
				0,
				-1
			],
			"type":"VEC3"
		},
		{
			"bufferView":19,
			"componentType":5126,
			"count":4,
			"type":"VEC3"
		},
		{
			"bufferView":20,
			"componentType":5126,
			"count":4,
			"type":"VEC2"
		},
		{
			"bufferView":21,
			"componentType":5126,
			"count":4,
			"max":[
				1,
				0,
				1
			],
			"min":[
				-1,
				0,
				-1
			],
			"type":"VEC3"
		},
		{
			"bufferView":22,
			"componentType":5126,
			"count":4,
			"type":"VEC3"
		},
		{
			"bufferView":23,
			"componentType":5126,
			"count":4,
			"type":"VEC2"
		},
		{
			"bufferView":24,
			"componentType":5126,
			"count":4,
			"max":[
				1,
				0,
				1
			],
			"min":[
				-1,
				0,
				-1
			],
			"type":"VEC3"
		},
		{
			"bufferView":25,
			"componentType":5126,
			"count":4,
			"type":"VEC3"
		},
		{
			"bufferView":26,
			"componentType":5126,
			"count":4,
			"type":"VEC2"
		},
		{
			"bufferView":27,
			"componentType":5126,
			"count":36,
			"max":[
				0.8660253882408142,
				1,
				1
			],
			"min":[
				-0.8660253882408142,
				-1,
				-1
			],
			"type":"VEC3"
		},
		{
			"bufferView":28,
			"componentType":5126,
			"count":36,
			"type":"VEC3"
		},
		{
			"bufferView":29,
			"componentType":5126,
			"count":36,
			"type":"VEC2"
		},
		{
			"bufferView":30,
			"componentType":5123,
			"count":60,
			"type":"SCALAR"
		},
		{
			"bufferView":31,
			"componentType":5126,
			"count":36,
			"max":[
				0.8660253882408142,
				1,
				1
			],
			"min":[
				-0.8660253882408142,
				-1,
				-1
			],
			"type":"VEC3"
		},
		{
			"bufferView":32,
			"componentType":5126,
			"count":36,
			"type":"VEC3"
		},
		{
			"bufferView":33,
			"componentType":5126,
			"count":36,
			"type":"VEC2"
		},
		{
			"bufferView":34,
			"componentType":5126,
			"count":114,
			"max":[
				1,
				0.6194288730621338,
				1
			],
			"min":[
				-1,
				-0.6302154064178467,
				-1
			],
			"type":"VEC3"
		},
		{
			"bufferView":35,
			"componentType":5126,
			"count":114,
			"type":"VEC3"
		},
		{
			"bufferView":36,
			"componentType":5126,
			"count":114,
			"type":"VEC2"
		},
		{
			"bufferView":37,
			"componentType":5123,
			"count":192,
			"type":"SCALAR"
		},
		{
			"bufferView":38,
			"componentType":5126,
			"count":9610,
			"max":[
				0.6992816925048828,
				1.266466736793518,
				3.701185703277588
			],
			"min":[
				-6.671069145202637,
				-1.5401058197021484,
				-4.162497043609619
			],
			"type":"VEC3"
		},
		{
			"bufferView":39,
			"componentType":5126,
			"count":9610,
			"type":"VEC3"
		},
		{
			"bufferView":40,
			"componentType":5126,
			"count":9610,
			"type":"VEC2"
		},
		{
			"bufferView":41,
			"componentType":5123,
			"count":15552,
			"type":"SCALAR"
		},
		{
			"bufferView":42,
			"componentType":5126,
			"count":144,
			"max":[
				1,
				1,
				1
			],
			"min":[
				-1.0000004768371582,
				-9.795738220214844,
				-1.0000001192092896
			],
			"type":"VEC3"
		},
		{
			"bufferView":43,
			"componentType":5126,
			"count":144,
			"type":"VEC3"
		},
		{
			"bufferView":44,
			"componentType":5126,
			"count":144,
			"type":"VEC2"
		},
		{
			"bufferView":45,
			"componentType":5123,
			"count":264,
			"type":"SCALAR"
		},
		{
			"bufferView":46,
			"componentType":5126,
			"count":144,
			"max":[
				1,
				1,
				1
			],
			"min":[
				-1.0000005960464478,
				-9.795738220214844,
				-1.000000238418579
			],
			"type":"VEC3"
		},
		{
			"bufferView":47,
			"componentType":5126,
			"count":144,
			"type":"VEC3"
		},
		{
			"bufferView":48,
			"componentType":5126,
			"count":144,
			"type":"VEC2"
		},
		{
			"bufferView":49,
			"componentType":5126,
			"count":144,
			"max":[
				1,
				1,
				1
			],
			"min":[
				-1.0000005960464478,
				-9.795738220214844,
				-1
			],
			"type":"VEC3"
		},
		{
			"bufferView":50,
			"componentType":5126,
			"count":144,
			"type":"VEC3"
		},
		{
			"bufferView":51,
			"componentType":5126,
			"count":144,
			"type":"VEC2"
		},
		{
			"bufferView":52,
			"componentType":5126,
			"count":72,
			"max":[
				1,
				0.693963348865509,
				1.6177799701690674
			],
			"min":[
				-1,
				-0.8126674890518188,
				-1.772115707397461
			],
			"type":"VEC3"
		},
		{
			"bufferView":53,
			"componentType":5126,
			"count":72,
			"type":"VEC3"
		},
		{
			"bufferView":54,
			"componentType":5126,
			"count":72,
			"type":"VEC2"
		},
		{
			"bufferView":55,
			"componentType":5123,
			"count":150,
			"type":"SCALAR"
		}
	],
	"bufferViews":[
		{
			"buffer":0,
			"byteLength":23808,
			"byteOffset":0,
			"target":34962
		},
		{
			"buffer":0,
			"byteLength":23808,
			"byteOffset":23808,
			"target":34962
		},
		{
			"buffer":0,
			"byteLength":15872,
			"byteOffset":47616,
			"target":34962
		},
		{
			"buffer":0,
			"byteLength":5760,
			"byteOffset":63488,
			"target":34963
		},
		{
			"buffer":0,
			"byteLength":288,
			"byteOffset":69248,
			"target":34962
		},
		{
			"buffer":0,
			"byteLength":288,
			"byteOffset":69536,
			"target":34962
		},
		{
			"buffer":0,
			"byteLength":192,
			"byteOffset":69824,
			"target":34962
		},
		{
			"buffer":0,
			"byteLength":72,
			"byteOffset":70016,
			"target":34963
		},
		{
			"buffer":0,
			"byteLength":48,
			"byteOffset":70088,
			"target":34962
		},
		{
			"buffer":0,
			"byteLength":48,
			"byteOffset":70136,
			"target":34962
		},
		{
			"buffer":0,
			"byteLength":32,
			"byteOffset":70184,
			"target":34962
		},
		{
			"buffer":0,
			"byteLength":12,
			"byteOffset":70216,
			"target":34963
		},
		{
			"buffer":0,
			"byteLength":48,
			"byteOffset":70228,
			"target":34962
		},
		{
			"buffer":0,
			"byteLength":48,
			"byteOffset":70276,
			"target":34962
		},
		{
			"buffer":0,
			"byteLength":32,
			"byteOffset":70324,
			"target":34962
		},
		{
			"buffer":0,
			"byteLength":48,
			"byteOffset":70356,
			"target":34962
		},
		{
			"buffer":0,
			"byteLength":48,
			"byteOffset":70404,
			"target":34962
		},
		{
			"buffer":0,
			"byteLength":32,
			"byteOffset":70452,
			"target":34962
		},
		{
			"buffer":0,
			"byteLength":48,
			"byteOffset":70484,
			"target":34962
		},
		{
			"buffer":0,
			"byteLength":48,
			"byteOffset":70532,
			"target":34962
		},
		{
			"buffer":0,
			"byteLength":32,
			"byteOffset":70580,
			"target":34962
		},
		{
			"buffer":0,
			"byteLength":48,
			"byteOffset":70612,
			"target":34962
		},
		{
			"buffer":0,
			"byteLength":48,
			"byteOffset":70660,
			"target":34962
		},
		{
			"buffer":0,
			"byteLength":32,
			"byteOffset":70708,
			"target":34962
		},
		{
			"buffer":0,
			"byteLength":48,
			"byteOffset":70740,
			"target":34962
		},
		{
			"buffer":0,
			"byteLength":48,
			"byteOffset":70788,
			"target":34962
		},
		{
			"buffer":0,
			"byteLength":32,
			"byteOffset":70836,
			"target":34962
		},
		{
			"buffer":0,
			"byteLength":432,
			"byteOffset":70868,
			"target":34962
		},
		{
			"buffer":0,
			"byteLength":432,
			"byteOffset":71300,
			"target":34962
		},
		{
			"buffer":0,
			"byteLength":288,
			"byteOffset":71732,
			"target":34962
		},
		{
			"buffer":0,
			"byteLength":120,
			"byteOffset":72020,
			"target":34963
		},
		{
			"buffer":0,
			"byteLength":432,
			"byteOffset":72140,
			"target":34962
		},
		{
			"buffer":0,
			"byteLength":432,
			"byteOffset":72572,
			"target":34962
		},
		{
			"buffer":0,
			"byteLength":288,
			"byteOffset":73004,
			"target":34962
		},
		{
			"buffer":0,
			"byteLength":1368,
			"byteOffset":73292,
			"target":34962
		},
		{
			"buffer":0,
			"byteLength":1368,
			"byteOffset":74660,
			"target":34962
		},
		{
			"buffer":0,
			"byteLength":912,
			"byteOffset":76028,
			"target":34962
		},
		{
			"buffer":0,
			"byteLength":384,
			"byteOffset":76940,
			"target":34963
		},
		{
			"buffer":0,
			"byteLength":115320,
			"byteOffset":77324,
			"target":34962
		},
		{
			"buffer":0,
			"byteLength":115320,
			"byteOffset":192644,
			"target":34962
		},
		{
			"buffer":0,
			"byteLength":76880,
			"byteOffset":307964,
			"target":34962
		},
		{
			"buffer":0,
			"byteLength":31104,
			"byteOffset":384844,
			"target":34963
		},
		{
			"buffer":0,
			"byteLength":1728,
			"byteOffset":415948,
			"target":34962
		},
		{
			"buffer":0,
			"byteLength":1728,
			"byteOffset":417676,
			"target":34962
		},
		{
			"buffer":0,
			"byteLength":1152,
			"byteOffset":419404,
			"target":34962
		},
		{
			"buffer":0,
			"byteLength":528,
			"byteOffset":420556,
			"target":34963
		},
		{
			"buffer":0,
			"byteLength":1728,
			"byteOffset":421084,
			"target":34962
		},
		{
			"buffer":0,
			"byteLength":1728,
			"byteOffset":422812,
			"target":34962
		},
		{
			"buffer":0,
			"byteLength":1152,
			"byteOffset":424540,
			"target":34962
		},
		{
			"buffer":0,
			"byteLength":1728,
			"byteOffset":425692,
			"target":34962
		},
		{
			"buffer":0,
			"byteLength":1728,
			"byteOffset":427420,
			"target":34962
		},
		{
			"buffer":0,
			"byteLength":1152,
			"byteOffset":429148,
			"target":34962
		},
		{
			"buffer":0,
			"byteLength":864,
			"byteOffset":430300,
			"target":34962
		},
		{
			"buffer":0,
			"byteLength":864,
			"byteOffset":431164,
			"target":34962
		},
		{
			"buffer":0,
			"byteLength":576,
			"byteOffset":432028,
			"target":34962
		},
		{
			"buffer":0,
			"byteLength":300,
			"byteOffset":432604,
			"target":34963
		}
	],
	"samplers":[
		{
			"magFilter":9729,
			"minFilter":9987
		}
	],
	"buffers":[
		{
			"byteLength":432904,
			"uri":"tank.bin"
		}
	]
}
