{
	"asset":{
		"generator":"Khronos glTF Blender I/O v4.0.44",
		"version":"2.0"
	},
	"scene":0,
	"scenes":[
		{
			"name":"Scene",
			"nodes":[
				0
			]
		}
	],
	"nodes":[
		{
			"mesh":0,
			"name":"Plane",
			"scale":[
				9.597691535949707,
				9.597691535949707,
				9.597691535949707
			]
		}
	],
	"materials":[
		{
			"doubleSided":true,
			"name":"Material",
			"pbrMetallicRoughness":{
				"baseColorTexture":{
					"index":0
				},
				"metallicFactor":0,
				"roughnessFactor":0.5
			}
		}
	],
	"meshes":[
		{
			"name":"Plane",
			"primitives":[
				{
					"attributes":{
						"POSITION":0,
						"NORMAL":1,
						"TEXCOORD_0":2
					},
					"indices":3,
					"material":0
				}
			]
		}
	],
	"textures":[
		{
			"sampler":0,
			"source":0
		}
	],
	"images":[
		{
			"mimeType":"image/png",
			"name":"grass",
			"uri":"grass.png"
		}
	],
	"accessors":[
		{
			"bufferView":0,
			"componentType":5126,
			"count":1050625,
			"max":[
				1.000000238418579,
				0.15000000596046448,
				1.000000238418579
			],
			"min":[
				-1.000000238418579,
				-0.15000000596046448,
				-1.000000238418579
			],
			"type":"VEC3"
		},
		{
			"bufferView":1,
			"componentType":5126,
			"count":1050625,
			"type":"VEC3"
		},
		{
			"bufferView":2,
			"componentType":5126,
			"count":1050625,
			"type":"VEC2"
		},
		{
			"bufferView":3,
			"componentType":5125,
			"count":6291456,
			"type":"SCALAR"
		}
	],
	"bufferViews":[
		{
			"buffer":0,
			"byteLength":12607500,
			"byteOffset":0,
			"target":34962
		},
		{
			"buffer":0,
			"byteLength":12607500,
			"byteOffset":12607500,
			"target":34962
		},
		{
			"buffer":0,
			"byteLength":8405000,
			"byteOffset":25215000,
			"target":34962
		},
		{
			"buffer":0,
			"byteLength":25165824,
			"byteOffset":33620000,
			"target":34963
		}
	],
	"samplers":[
		{
			"magFilter":9729,
			"minFilter":9987
		}
	],
	"buffers":[
		{
			"byteLength":58785824,
			"uri":"teren2.bin"
		}
	]
}
